<svg xmlns="http://www.w3.org/2000/svg" xmlns:xlink="http://www.w3.org/1999/xlink" width="500" zoomAndPan="magnify" viewBox="0 0 375 374.999991" height="500" preserveAspectRatio="xMidYMid meet" version="1.0"><defs><g/></defs><rect x="-37.5" width="450" fill="#ffffff" y="-37.499999" height="449.999989" fill-opacity="1"/><rect x="-37.5" width="450" fill="#1d2023" y="-37.499999" height="449.999989" fill-opacity="1"/><g fill="#ffffff" fill-opacity="1"><g transform="translate(84.463906, 214.484131)"><g><path d="M 18.433594 -54.816406 L 0.683594 -54.816406 C 0.34375 -54.816406 0 -54.476562 0 -54.203125 L 0 -44.746094 L 18.433594 -44.746094 C 19.667969 -44.746094 26.519531 -44.402344 26.519531 -38.371094 C 26.519531 -32.34375 19.804688 -32.207031 18.433594 -32.207031 L 0 -32.207031 L 0 -0.617188 C 0 -0.34375 0.34375 0 0.683594 0 L 9.59375 0 C 10.074219 0 10.277344 -0.34375 10.277344 -0.617188 L 10.277344 -22.0625 L 18.433594 -22.0625 C 19.734375 -22.0625 36.933594 -22.269531 36.933594 -38.371094 C 36.933594 -54.476562 20.625 -54.816406 18.433594 -54.816406 Z M 18.433594 -54.816406 "/></g></g></g><g fill="#ffffff" fill-opacity="1"><g transform="translate(130.780002, 214.484131)"><g><path d="M 22.339844 -9.386719 L 16.855469 -9.386719 L 16.855469 -54.816406 L 6.371094 -54.816406 L 6.371094 -9.386719 L 0.753906 -9.386719 C 0.34375 -9.386719 0 -9.113281 0 -8.769531 L 0 -0.617188 C 0 -0.34375 0.34375 0 0.753906 0 L 22.339844 0 C 22.816406 0 23.09375 -0.34375 23.09375 -0.617188 L 23.09375 -8.769531 C 23.09375 -9.113281 22.816406 -9.386719 22.339844 -9.386719 Z M 22.339844 -9.386719 "/></g></g></g><g fill="#ffffff" fill-opacity="1"><g transform="translate(162.571348, 214.484131)"><g><path d="M 49.953125 -54.816406 L 38.988281 -54.816406 C 38.851562 -54.816406 38.441406 -54.75 38.371094 -54.613281 L 25.421875 -36.316406 L 19.667969 -44.335938 L 6.921875 -44.335938 C 10.964844 -38.648438 14.9375 -32.960938 18.980469 -27.410156 L 0.207031 -1.027344 C -0.207031 -0.546875 0.0703125 0 0.753906 0 L 11.71875 0 C 11.855469 0 12.265625 -0.0703125 12.335938 -0.207031 L 25.421875 -18.5 L 31.109375 -10.484375 L 43.855469 -10.484375 C 39.8125 -16.171875 35.769531 -21.859375 31.726562 -27.410156 L 50.636719 -53.789062 C 50.980469 -54.269531 50.707031 -54.816406 49.953125 -54.816406 Z M 49.953125 -54.816406 "/></g></g></g><g fill="#ffffff" fill-opacity="1"><g transform="translate(223.4122, 214.484131)"><g><path d="M 26.039062 -10.210938 L 10.484375 -10.210938 L 10.484375 -22.542969 L 32 -22.542969 C 32.410156 -22.542969 32.753906 -22.886719 32.753906 -23.160156 L 32.753906 -31.863281 C 32.753906 -32.207031 32.410156 -32.480469 32 -32.480469 L 10.484375 -32.480469 L 10.484375 -44.882812 L 26.039062 -44.882812 L 26.039062 -54.816406 L 0.753906 -54.816406 C 0.34375 -54.816406 0 -54.476562 0 -54.203125 L 0 -0.617188 C 0 -0.34375 0.34375 0 0.753906 0 L 26.039062 0 Z M 26.039062 -10.210938 "/></g></g></g><g fill="#ffffff" fill-opacity="1"><g transform="translate(265.343472, 214.484131)"><g><path d="M 29.601562 -10.210938 L 0 -10.210938 L 0 -0.617188 C 0 -0.34375 0.34375 0 0.753906 0 L 29.601562 0 C 30.082031 0 30.355469 -0.34375 30.355469 -0.617188 L 30.355469 -9.523438 C 30.355469 -9.867188 30.082031 -10.210938 29.601562 -10.210938 Z M 10.484375 -20.695312 L 10.484375 -54.203125 C 10.484375 -54.476562 10.210938 -54.816406 9.796875 -54.816406 L 0.753906 -54.816406 C 0.34375 -54.816406 0 -54.476562 0 -54.203125 L 0 -20.695312 Z M 10.484375 -20.695312 "/></g></g></g></svg>