<svg version="1.2" xmlns="http://www.w3.org/2000/svg" viewBox="0 0 275 275" width="275" height="275"><style>.a{fill:#fff}.b{fill:#1d2023}</style><path class="a" d="m-86.5-86.5h450v450h-450z"/><path class="b" d="m-86.5-86.5h450v450h-450z"/><path class="a" d="m73.7 117.2h-13.6c-0.3 0-0.6 0.2-0.6 0.4v7.3h14.2c0.9 0 6.2 0.3 6.2 4.9 0 4.6-5.2 4.7-6.2 4.7h-14.2v24.2c0 0.2 0.3 0.5 0.6 0.5h6.8c0.4 0 0.5-0.3 0.5-0.5v-16.4h6.3c1 0 14.1-0.2 14.1-12.5 0-12.4-12.4-12.6-14.1-12.6z"/><path class="a" d="m112.2 152h-4.2v-34.8h-8.1v34.8h-4.3c-0.3 0-0.6 0.2-0.6 0.5v6.2c0 0.2 0.3 0.5 0.6 0.5h16.6c0.3 0 0.5-0.3 0.5-0.5v-6.2c0-0.3-0.2-0.5-0.5-0.5z"/><path class="a" d="m157.7 117.2h-8.4c-0.1 0-0.4 0-0.5 0.1l-9.9 14-4.4-6.1h-9.8c3.1 4.4 6.1 8.7 9.2 13l-14.3 20.2c-0.4 0.4-0.2 0.8 0.4 0.8h8.4c0.1 0 0.4-0.1 0.5-0.2l10-14 4.3 6.1h9.8c-3.1-4.3-6.2-8.7-9.3-12.9l14.5-20.2c0.3-0.4 0.1-0.8-0.5-0.8z"/><path class="a" d="m186 151.4h-11.9v-9.5h16.4c0.4 0 0.6-0.3 0.6-0.5v-6.6c0-0.3-0.2-0.5-0.6-0.5h-16.4v-9.5h11.9v-7.6h-19.4c-0.3 0-0.6 0.2-0.6 0.4v41.1c0 0.2 0.3 0.5 0.6 0.5h19.4z"/><path class="a" d="m220.8 151.4h-22.7v7.3c0 0.2 0.3 0.5 0.6 0.5h22.1c0.4 0 0.6-0.3 0.6-0.5v-6.8c0-0.3-0.2-0.5-0.6-0.5zm-14.6-8.1v-25.7c0-0.2-0.2-0.4-0.5-0.4h-7c-0.3 0-0.6 0.2-0.6 0.4v25.7z"/></svg>