<svg xmlns="http://www.w3.org/2000/svg" xmlns:xlink="http://www.w3.org/1999/xlink" width="500" zoomAndPan="magnify" viewBox="0 0 375 374.999991" height="500" preserveAspectRatio="xMidYMid meet" version="1.0"><defs><g/></defs><rect x="-37.5" width="450" fill="#ffffff" y="-37.499999" height="449.999989" fill-opacity="1"/><rect x="-37.5" width="450" fill="#1d2023" y="-37.499999" height="449.999989" fill-opacity="1"/><g fill="#ffffff" fill-opacity="1"><g transform="translate(108.545785, 208.177326)"><g><path d="M 14.125 -42.007812 L 0.523438 -42.007812 C 0.261719 -42.007812 0 -41.742188 0 -41.535156 L 0 -34.289062 L 14.125 -34.289062 C 15.070312 -34.289062 20.320312 -34.023438 20.320312 -29.402344 C 20.320312 -24.785156 15.175781 -24.679688 14.125 -24.679688 L 0 -24.679688 L 0 -0.472656 C 0 -0.261719 0.261719 0 0.523438 0 L 7.351562 0 C 7.71875 0 7.875 -0.261719 7.875 -0.472656 L 7.875 -16.90625 L 14.125 -16.90625 C 15.121094 -16.90625 28.300781 -17.066406 28.300781 -29.402344 C 28.300781 -41.742188 15.804688 -42.007812 14.125 -42.007812 Z M 14.125 -42.007812 "/></g></g></g><g fill="#ffffff" fill-opacity="1"><g transform="translate(144.036755, 208.177326)"><g><path d="M 17.117188 -7.195312 L 12.917969 -7.195312 L 12.917969 -42.007812 L 4.882812 -42.007812 L 4.882812 -7.195312 L 0.578125 -7.195312 C 0.261719 -7.195312 0 -6.984375 0 -6.722656 L 0 -0.472656 C 0 -0.261719 0.261719 0 0.578125 0 L 17.117188 0 C 17.484375 0 17.695312 -0.261719 17.695312 -0.472656 L 17.695312 -6.722656 C 17.695312 -6.984375 17.484375 -7.195312 17.117188 -7.195312 Z M 17.117188 -7.195312 "/></g></g></g><g fill="#ffffff" fill-opacity="1"><g transform="translate(168.39774, 208.177326)"><g><path d="M 38.277344 -42.007812 L 29.875 -42.007812 C 29.773438 -42.007812 29.457031 -41.953125 29.402344 -41.847656 L 19.480469 -27.828125 L 15.070312 -33.972656 L 5.304688 -33.972656 C 8.402344 -29.613281 11.445312 -25.257812 14.542969 -21.003906 L 0.15625 -0.789062 C -0.15625 -0.421875 0.0507812 0 0.578125 0 L 8.980469 0 C 9.082031 0 9.398438 -0.0507812 9.453125 -0.15625 L 19.480469 -14.175781 L 23.839844 -8.035156 L 33.605469 -8.035156 C 30.507812 -12.390625 27.410156 -16.75 24.3125 -21.003906 L 38.804688 -41.21875 C 39.066406 -41.585938 38.855469 -42.007812 38.277344 -42.007812 Z M 38.277344 -42.007812 "/></g></g></g><g fill="#ffffff" fill-opacity="1"><g transform="translate(215.018701, 208.177326)"><g><path d="M 19.953125 -7.824219 L 8.035156 -7.824219 L 8.035156 -17.273438 L 24.519531 -17.273438 C 24.835938 -17.273438 25.097656 -17.539062 25.097656 -17.746094 L 25.097656 -24.414062 C 25.097656 -24.679688 24.835938 -24.886719 24.519531 -24.886719 L 8.035156 -24.886719 L 8.035156 -34.390625 L 19.953125 -34.390625 L 19.953125 -42.007812 L 0.578125 -42.007812 C 0.261719 -42.007812 0 -41.742188 0 -41.535156 L 0 -0.472656 C 0 -0.261719 0.261719 0 0.578125 0 L 19.953125 0 Z M 19.953125 -7.824219 "/></g></g></g><g fill="#ffffff" fill-opacity="1"><g transform="translate(247.149681, 208.177326)"><g><path d="M 22.683594 -7.824219 L 0 -7.824219 L 0 -0.472656 C 0 -0.261719 0.261719 0 0.578125 0 L 22.683594 0 C 23.050781 0 23.261719 -0.261719 23.261719 -0.472656 L 23.261719 -7.296875 C 23.261719 -7.5625 23.050781 -7.824219 22.683594 -7.824219 Z M 8.035156 -15.855469 L 8.035156 -41.535156 C 8.035156 -41.742188 7.824219 -42.007812 7.507812 -42.007812 L 0.578125 -42.007812 C 0.261719 -42.007812 0 -41.742188 0 -41.535156 L 0 -15.855469 Z M 8.035156 -15.855469 "/></g></g></g><path stroke-linecap="butt" transform="matrix(-0.75, 0, 0, -0.75, 312.485082, 142.033995)" fill="none" stroke-linejoin="miter" d="M 0.000942107 4.998452 L 84.433239 4.998452 " stroke="#ffffff" stroke-width="10" stroke-opacity="1" stroke-miterlimit="4"/><path stroke-linecap="butt" transform="matrix(0, -0.75, 0.75, 0, 304.98892, 198.627673)" fill="none" stroke-linejoin="miter" d="M -0.00164386 4.999149 L 82.461903 4.999149 " stroke="#ffffff" stroke-width="10" stroke-opacity="1" stroke-miterlimit="4"/><path stroke-linecap="butt" transform="matrix(0.75, 0, 0, 0.75, 62.506479, 232.958306)" fill="none" stroke-linejoin="miter" d="M 0.00177827 4.998301 L 84.434075 4.998301 " stroke="#ffffff" stroke-width="10" stroke-opacity="1" stroke-miterlimit="4"/><path stroke-linecap="butt" transform="matrix(0, 0.75, -0.75, 0, 70.002634, 176.364612)" fill="none" stroke-linejoin="miter" d="M -0.00177489 4.998303 L 82.461772 4.998303 " stroke="#ffffff" stroke-width="10" stroke-opacity="1" stroke-miterlimit="4"/></svg>