<svg version="1.2" xmlns="http://www.w3.org/2000/svg" viewBox="0 0 375 163" width="375" height="163"><defs><clipPath clipPathUnits="userSpaceOnUse" id="cp1"><path d="m76.36 45.57h54.08v54.09h-54.08z"/></clipPath><clipPath clipPathUnits="userSpaceOnUse" id="cp2"><path d="m0 69.7h18.64v29.95h-18.64z"/></clipPath><clipPath clipPathUnits="userSpaceOnUse" id="cp3"><path d="m130.45 15.93h53.1v29.64h-53.1z"/></clipPath><clipPath clipPathUnits="userSpaceOnUse" id="cp4"><path d="m42.78 11.98h33.58v33.58h-33.58z"/></clipPath><clipPath clipPathUnits="userSpaceOnUse" id="cp5"><path d="m42.78 69.68h16.79v16.8h-16.79z"/></clipPath><clipPath clipPathUnits="userSpaceOnUse" id="cp6"><path d="m18.65 11.98h16.79v16.79h-16.79z"/></clipPath><clipPath clipPathUnits="userSpaceOnUse" id="cp7"><path d="m18.65 45.57h24.13v24.13h-24.13z"/></clipPath><clipPath clipPathUnits="userSpaceOnUse" id="cp8"><path d="m1.86 28.77h16.79v16.79h-16.79z"/></clipPath><clipPath clipPathUnits="userSpaceOnUse" id="cp9"><path d="m42.78 99.64h33.58v33.59h-33.58z"/></clipPath></defs><style>.a{fill:#fff}</style><g clip-path="url(#cp1)"><path class="a" d="m76.4 99.7v-54.1h54v54.1z"/></g><g clip-path="url(#cp2)"><path class="a" d="m0 99.7v-30h18.6v30z"/></g><g clip-path="url(#cp3)"><path class="a" d="m130.4 45.6v-29.7h53.2v29.7z"/></g><g clip-path="url(#cp4)"><path class="a" d="m42.8 45.6v-33.6h33.6v33.6z"/></g><g clip-path="url(#cp5)"><path class="a" d="m42.8 86.5v-16.8h16.8v16.8z"/></g><g clip-path="url(#cp6)"><path class="a" d="m18.6 28.8v-16.8h16.8v16.8z"/></g><g clip-path="url(#cp7)"><path class="a" d="m18.6 69.7v-24.1h24.2v24.1z"/></g><g clip-path="url(#cp8)"><path class="a" d="m1.9 45.6v-16.8h16.7v16.8z"/></g><g clip-path="url(#cp9)"><path class="a" d="m42.8 133.2v-33.6h33.6v33.6z"/></g><path fill-rule="evenodd" class="a" d="m157.6 110.3v23.6h-20.7v-83.9h30.6q19.4 0 27.6 6.8 8.1 6.7 8.1 22.6 0 15.8-8.6 23.4-8.6 7.5-26.7 7.5zm24.6-30.9q0-5.8-3.2-8.2-3.2-2.5-11.5-2.5h-9.9v23.5h9.9q8.4 0 11.6-2.9 3.1-2.8 3.1-9.9z"/><path class="a" d="m226.6 60.6h-21.1v-15.7h21.1zm-0.5 73.3h-20.1v-66h20.1z"/><path class="a" d="m270 99.5l20.1 34.4h-21.9l-10.6-20.5-10.5 20.5h-20.8l20.4-34.4-20.1-31.7h23.4l9.4 18.6 9.7-18.6h20.8z"/><path fill-rule="evenodd" class="a" d="m345.1 114.4v15.9q-3.2 2-10.8 3.5-7.6 1.4-16.1 1.4-16 0-23.1-8.1-7.1-8.1-7.1-26.3 0-17.7 7.5-26 7.5-8.3 23.7-8.3 15.8 0 22.2 6.2 6.5 6.2 6.5 22 0 4.3-0.1 6.8-0.1 2.6-0.5 5.9h-39.1q0.1 5.5 2.9 7.6 2.9 2.2 10.3 2.2 6.5 0 13.1-0.9 6.7-0.9 10.6-1.9zm-25.9-30.8q-6.5 0-8.7 2.2-2.3 2.2-2.3 8.6h21.5v-2.9q-0.1-4.7-2.2-6.3-2-1.6-8.3-1.6z"/><path class="a" d="m372 44.9v89h-20.1v-89z"/></svg>
