<svg version="1.2" xmlns="http://www.w3.org/2000/svg" viewBox="0 0 375 159" width="375" height="159"><style>.a{fill:#fff}.b{fill:none;stroke:#fff;stroke-width:11.3}</style><path class="a" d="m90.3 47.5h-20.4c-0.4 0-0.8 0.4-0.8 0.7v10.9h21.2c1.4 0 9.2 0.4 9.2 7.3 0 6.9-7.7 7.1-9.2 7.1h-21.2v36.3c0 0.3 0.4 0.7 0.8 0.7h10.2c0.5 0 0.8-0.4 0.8-0.7v-24.6h9.4c1.4 0 21.2-0.3 21.2-18.8 0-18.5-18.7-18.9-21.2-18.9z"/><path class="a" d="m148 99.7h-6.3v-52.2h-12.1v52.2h-6.4c-0.5 0-0.9 0.3-0.9 0.7v9.4c0 0.3 0.4 0.7 0.9 0.7h24.8c0.5 0 0.8-0.4 0.8-0.7v-9.4c0-0.4-0.3-0.7-0.8-0.7z"/><path class="a" d="m216.3 47.5h-12.6c-0.2 0-0.7 0.1-0.7 0.2l-14.9 21.1-6.6-9.2h-14.7c4.6 6.5 9.2 13 13.9 19.4l-21.6 30.3c-0.5 0.6-0.2 1.2 0.6 1.2h12.6c0.2 0 0.6-0.1 0.7-0.2l15.1-21 6.5 9.2h14.7c-4.7-6.6-9.3-13.1-14-19.5l21.8-30.3c0.3-0.6 0-1.2-0.8-1.2z"/><path class="a" d="m258.7 98.8h-17.9v-14.2h24.8c0.4 0 0.8-0.4 0.8-0.7v-10c0-0.4-0.4-0.7-0.8-0.7h-24.8v-14.3h17.9v-11.4h-29.1c-0.4 0-0.8 0.4-0.8 0.7v61.6c0 0.3 0.4 0.7 0.8 0.7h29.1z"/><path class="a" d="m311 98.8h-34v11c0 0.3 0.4 0.7 0.8 0.7h33.2c0.6 0 0.9-0.4 0.9-0.7v-10.2c0-0.4-0.3-0.8-0.9-0.8zm-22-12.1v-38.5c0-0.3-0.3-0.7-0.8-0.7h-10.4c-0.4 0-0.8 0.4-0.8 0.7v38.5z"/><path class="b" d="m375 5.7h-95"/><path class="b" d="m369.4 96.2v-92.8"/><path class="b" d="m0 153.3h95"/><path class="b" d="m5.6 62.8v92.8"/></svg>